<?xml version="1.0" encoding="UTF-8"?>
<svg width="21px" height="23px" viewBox="0 0 21 23" version="1.1" xmlns="http://www.w3.org/2000/svg" xmlns:xlink="http://www.w3.org/1999/xlink">
    <!-- Generator: Sketch 47.1 (45422) - http://www.bohemiancoding.com/sketch -->
    <title>trash-o - FontAwesome Copy</title>
    <desc>Created with Sketch.</desc>
    <defs></defs>
    <g id="Page-1" stroke="none" stroke-width="1" fill="none" fill-rule="evenodd">
        <g id="Adviceroom" transform="translate(-735.000000, -4697.000000)" fill="#FFFFFF">
            <path d="M742.42858,4706.39284 L742.42858,4714.75 C742.42858,4715.01116 742.225455,4715.21428 741.964294,4715.21428 L741.035721,4715.21428 C740.77456,4715.21428 740.571435,4715.01116 740.571435,4714.75 L740.571435,4706.39284 C740.571435,4706.13168 740.77456,4705.92856 741.035721,4705.92856 L741.964294,4705.92856 C742.225455,4705.92856 742.42858,4706.13168 742.42858,4706.39284 Z M746.14287,4706.39284 L746.14287,4714.75 C746.14287,4715.01116 745.939745,4715.21428 745.678584,4715.21428 L744.750012,4715.21428 C744.488851,4715.21428 744.285725,4715.01116 744.285725,4714.75 L744.285725,4706.39284 C744.285725,4706.13168 744.488851,4705.92856 744.750012,4705.92856 L745.678584,4705.92856 C745.939745,4705.92856 746.14287,4706.13168 746.14287,4706.39284 Z M749.857161,4706.39284 L749.857161,4714.75 C749.857161,4715.01116 749.654035,4715.21428 749.392874,4715.21428 L748.464302,4715.21428 C748.203141,4715.21428 748.000015,4715.01116 748.000015,4714.75 L748.000015,4706.39284 C748.000015,4706.13168 748.203141,4705.92856 748.464302,4705.92856 L749.392874,4705.92856 C749.654035,4705.92856 749.857161,4706.13168 749.857161,4706.39284 Z M751.714306,4716.89732 L751.714306,4703.14284 L738.71429,4703.14284 L738.71429,4716.89732 C738.71429,4717.59375 739.106032,4718 739.178576,4718 L751.250019,4718 C751.322564,4718 751.714306,4717.59375 751.714306,4716.89732 Z M741.964294,4701.28569 L748.464302,4701.28569 L747.767872,4699.58815 C747.724346,4699.53011 747.593765,4699.44306 747.52122,4699.42855 L742.921884,4699.42855 C742.834831,4699.44306 742.718759,4699.53011 742.675232,4699.58815 L741.964294,4701.28569 Z M755.428596,4701.74998 L755.428596,4702.67855 C755.428596,4702.93971 755.225471,4703.14284 754.96431,4703.14284 L753.571451,4703.14284 L753.571451,4716.89732 C753.571451,4718.4933 752.526807,4719.85715 751.250019,4719.85715 L739.178576,4719.85715 C737.901789,4719.85715 736.857145,4718.55134 736.857145,4716.95536 L736.857145,4703.14284 L735.464286,4703.14284 C735.203125,4703.14284 735,4702.93971 735,4702.67855 L735,4701.74998 C735,4701.48882 735.203125,4701.28569 735.464286,4701.28569 L739.947551,4701.28569 L740.963177,4698.8627 C741.253356,4698.15176 742.123892,4697.5714 742.892867,4697.5714 L747.535729,4697.5714 C748.304703,4697.5714 749.17524,4698.15176 749.465419,4698.8627 L750.481045,4701.28569 L754.96431,4701.28569 C755.225471,4701.28569 755.428596,4701.48882 755.428596,4701.74998 Z" id="trash-o---FontAwesome-Copy"></path>
        </g>
    </g>
</svg>