<svg xmlns="http://www.w3.org/2000/svg" width="13" height="31" viewBox="0 0 13 31">
  <path fill="#FFFFFF" fill-rule="evenodd" d="M12.3706494,9.65487479 L12.3706494,16.7986162 C12.3706494,17.4480473 11.8605195,17.9675921 11.265368,17.9675921 C10.6702165,17.9675921 10.1600866,17.4480473 10.1600866,16.7986162 L10.1600866,12.5989622 L10.1600866,10.217715 L9.64995671,10.217715 L9.64995671,12.7288484 L9.64995671,17.2748657 L9.64995671,17.9242967 L9.64995671,28.921329 C9.64995671,29.787237 8.96978355,30.4799635 8.16207792,30.4799635 C7.35437229,30.4799635 6.67419913,29.787237 6.67419913,28.921329 L6.67419913,17.9242967 L6.12155844,17.9242967 L6.12155844,28.8780336 C6.12155844,29.7439416 5.44138528,30.4366681 4.63367965,30.4366681 C3.82597403,30.4366681 3.14580087,29.7439416 3.14580087,28.8780336 L3.14580087,17.8810013 L3.14580087,17.2315703 L3.14580087,12.685553 L3.14580087,10.1744196 L2.635671,10.1744196 L2.635671,12.5556668 L2.635671,16.7553208 C2.635671,17.4047519 2.12554113,17.9242967 1.53038961,17.9242967 C0.935238095,17.9242967 0.425108225,17.4047519 0.425108225,16.7553208 L0.425108225,9.65487479 C0.425108225,7.66328627 1.95549784,6.06135637 3.86848485,6.06135637 L5.27134199,6.06135637 L5.52640693,6.06135637 L8.92727273,6.06135637 C10.7977489,6.06135637 12.3706494,7.66328627 12.3706494,9.65487479 Z M6.8017316,5.36862993 C5.39887446,5.36862993 4.25108225,4.19965406 4.25108225,2.68431496 C4.25108225,1.21227127 5.39887446,0 6.8017316,0 C8.20458874,0 9.35238095,1.21227127 9.35238095,2.68431496 C9.35238095,4.15635865 8.20458874,5.36862993 6.8017316,5.36862993 Z"/>
</svg>
